<?xml version="1.0" encoding="utf-8"?>
<!-- Generator: Adobe Illustrator 27.3.1, SVG Export Plug-In . SVG Version: 6.00 Build 0)  -->
<svg version="1.1" id="Layer_1" xmlns="http://www.w3.org/2000/svg" xmlns:xlink="http://www.w3.org/1999/xlink" x="0px" y="0px"
	 viewBox="0 0 60 60" style="enable-background:new 0 0 60 60;" xml:space="preserve">
<style type="text/css">
	.st0{fill:#F7F7F7;}
</style>
<path d="M27.3,36.3c2.5,0,4.7-0.9,6.4-2.6c1.7-1.7,2.6-3.9,2.6-6.4s-0.9-4.7-2.6-6.4c-1.7-1.7-3.9-2.6-6.4-2.6s-4.7,0.9-6.4,2.6
	s-2.6,3.9-2.6,6.4s0.9,4.7,2.6,6.4C22.6,35.4,24.7,36.3,27.3,36.3z M25.6,48.9c-6.5,0-12-2.3-16.6-6.9S2.1,31.9,2.1,25.5
	S4.4,13.6,9,9s10.1-6.9,16.5-6.9S37.4,4.4,42,9s6.9,10.1,6.9,16.6c0,2.1-0.4,4.2-1.1,6.4c-0.7,2.2-1.8,4.4-3.1,6.5l12.3,12.3
	c0.9,0.9,1.3,1.9,1.2,3.1c0,1.2-0.5,2.2-1.4,3.1c-0.9,0.8-1.9,1.3-3.1,1.3s-2.2-0.4-3.1-1.3L38.5,44.8c-2.1,1.4-4.3,2.4-6.5,3.1
	C29.8,48.5,27.7,48.9,25.6,48.9z M37.7,27.6c0,5.7-4.6,10.4-10.4,10.4S17,33.3,17,27.6s4.6-10.4,10.4-10.4S37.7,21.8,37.7,27.6z"/>
<g>
	<path class="st0" d="M17.5,37.5h-1.6c-0.9,0-1.7-0.8-1.7-1.7V23.5c0-0.9,0.8-1.7,1.7-1.7h1.6c0.9,0,1.7,0.8,1.7,1.7v12.3
		C19.2,36.7,18.4,37.5,17.5,37.5z"/>
	<path class="st0" d="M26,37.5h-1.6c-0.9,0-1.7-0.8-1.7-1.7V15.4c0-0.9,0.8-1.7,1.7-1.7H26c0.9,0,1.7,0.8,1.7,1.7v20.3
		C27.7,36.7,26.9,37.5,26,37.5z"/>
	<path class="st0" d="M34.5,37.5h-1.6c-0.9,0-1.7-0.8-1.7-1.7V19.9c0-0.9,0.8-1.7,1.7-1.7h1.6c0.9,0,1.7,0.8,1.7,1.7v15.8
		C36.2,36.7,35.5,37.5,34.5,37.5z"/>
</g>
</svg>
