<?xml version="1.0" encoding="utf-8"?>
<!-- Generator: Adobe Illustrator 27.3.1, SVG Export Plug-In . SVG Version: 6.00 Build 0)  -->
<svg version="1.1" id="Layer_1" xmlns="http://www.w3.org/2000/svg" xmlns:xlink="http://www.w3.org/1999/xlink" x="0px" y="0px"
	 viewBox="0 0 60 60" style="enable-background:new 0 0 60 60;" xml:space="preserve">
<path d="M1,52.1l0-18.6c0-1.4,0.5-2.7,1.5-3.6C3.3,29.3,4.2,29,5.1,29l2,0c1.4,0,2.7,0.5,3.6,1.5c0.6,0.7,0.9,1.6,0.9,2.6l0,18.6
	c0,1.4-0.5,2.7-1.5,3.6c-0.7,0.6-1.6,0.9-2.6,0.9l-2,0c-1.4,0-2.7-0.5-3.6-1.5C1.3,53.9,1,53.1,1,52.1z M36.1,58.1l-19.7-5.6
	c-0.3-0.1-0.6-0.4-0.6-0.8V29.8c0-0.4,0.4-0.8,0.8-0.8l4.8,0c0.3,0,0.5,0,0.8,0.1c0.2,0.1,0.5,0.1,0.7,0.2l16.9,6.4
	c1.4,0.5,2.4,1.3,3.2,2.3c0.7,1,1.1,2.1,1.1,3.1c0,0.4-0.1,0.7-0.3,0.9c-0.2,0.2-0.5,0.3-0.9,0.3h-5c-1.2,0-2.3-0.1-3.2-0.2
	c-0.9-0.1-1.9-0.4-3-0.8L27.7,40c-0.3-0.1-0.5-0.1-0.8,0s-0.4,0.3-0.5,0.6c-0.1,0.3-0.1,0.6,0,0.8c0.1,0.3,0.3,0.4,0.6,0.5l4.2,1.5
	c0.7,0.2,1.7,0.4,2.8,0.7c1.1,0.2,2.7,0.3,4.8,0.3h13.5c2.6,0,4.4,0.6,5.4,1.8c0.9,1.1,1.3,2.8,1.4,4.9c0,0.4-0.2,0.7-0.6,0.8
	l-19.9,6.1c-0.4,0.1-0.8,0.1-1.2,0.1C36.9,58.2,36.5,58.2,36.1,58.1z M42.8,30.2c-0.3,0-0.6,0-0.9-0.1s-0.5-0.3-0.8-0.5
	c-4-3.6-7.4-7-10.3-10.3c-2.8-3.3-4.2-6.3-4.2-9.1c0-2.4,0.8-4.4,2.4-6c1.6-1.6,3.6-2.4,6-2.4c1.4,0,2.7,0.4,4.1,1.1
	c1.1,0.6,2.1,1.4,3,2.4c0.3,0.4,0.9,0.4,1.2,0c0.9-1,1.9-1.8,3-2.4c1.4-0.8,2.7-1.1,4.1-1.1c2.4,0,4.4,0.8,6,2.4
	c1.6,1.6,2.4,3.6,2.4,6c0,2.8-1.4,5.9-4.2,9.1S48.5,26,44.5,29.6c-0.2,0.2-0.5,0.4-0.8,0.5C43.4,30.2,43.1,30.2,42.8,30.2z"/>
</svg>
