<?xml version="1.0" encoding="utf-8"?>
<!-- Generator: Adobe Illustrator 27.3.1, SVG Export Plug-In . SVG Version: 6.00 Build 0)  -->
<svg version="1.1" id="Layer_1" xmlns="http://www.w3.org/2000/svg" xmlns:xlink="http://www.w3.org/1999/xlink" x="0px" y="0px"
	 viewBox="0 0 60 60" style="enable-background:new 0 0 60 60;" xml:space="preserve">
<path d="M27.2,28.9l-4.2-4.2c-0.4-0.4-0.9-0.6-1.4-0.6s-1,0.2-1.4,0.6c-0.4,0.4-0.6,0.9-0.6,1.4s0.2,1,0.6,1.4l5.6,5.6
	c0.4,0.4,0.9,0.6,1.4,0.6s1-0.2,1.4-0.6l11.2-10.5c0.5-0.5,0.8-1.2,0.7-1.9c0-0.1,0-0.2,0-0.3c-0.1-0.5-0.3-0.9-0.7-1.3
	c-0.4-0.4-0.9-0.6-1.4-0.6c-0.5,0-1,0.2-1.4,0.6L27.2,28.9z M1,51.8L1,51.8c0-1.1,0.9-2,2-2h54c0.6,0,1,0.2,1.4,0.6s0.6,0.8,0.6,1.4
	s-0.2,1-0.6,1.4s-0.8,0.6-1.4,0.6H3C1.9,53.7,1,52.8,1,51.8z M7.6,45.8c-1.1,0-2-0.4-2.8-1.2s-1.2-1.7-1.2-2.8V10.2
	c0-1.1,0.4-2,1.2-2.8s1.7-1.2,2.8-1.2h44.8c1.1,0,2,0.4,2.8,1.2s1.2,1.7,1.2,2.8v31.6c0,1.1-0.4,2-1.2,2.8s-1.7,1.2-2.8,1.2H7.6z"/>
</svg>
