<?xml version="1.0" encoding="utf-8"?>
<!-- Generator: Adobe Illustrator 27.3.1, SVG Export Plug-In . SVG Version: 6.00 Build 0)  -->
<svg version="1.1" id="Layer_1" xmlns="http://www.w3.org/2000/svg" xmlns:xlink="http://www.w3.org/1999/xlink" x="0px" y="0px"
	 viewBox="0 0 60 60" style="enable-background:new 0 0 60 60;" xml:space="preserve">
<path d="M52.8,23.7l-3.2-1.5l3.2-1.5l1.5-3.2l1.5,3.2l3.2,1.5l-3.2,1.5L54.3,27L52.8,23.7z M43.9,10.9l-4.8-2.3l4.8-2.3l2.3-4.8
	l2.3,4.8l4.8,2.3l-4.8,2.3l-2.3,4.8L43.9,10.9z M20.3,58.4c-1.5,0-2.7-0.5-3.7-1.5c-1-1-1.5-2.2-1.5-3.7h10.4c0,1.5-0.5,2.7-1.5,3.7
	C23,57.9,21.8,58.4,20.3,58.4z M11.8,49.1c-0.6,0-1-0.2-1.4-0.5c-0.4-0.4-0.5-0.8-0.5-1.4c0-0.6,0.2-1,0.5-1.4
	c0.4-0.4,0.8-0.5,1.4-0.5h17c0.6,0,1,0.2,1.4,0.5c0.4,0.4,0.5,0.8,0.5,1.4c0,0.6-0.2,1-0.5,1.4c-0.4,0.4-0.8,0.5-1.4,0.5H11.8z
	 M10.2,41.3c-2.8-1.8-5.1-4.2-6.7-6.9S1,28.5,1,25c0-5.2,1.9-9.8,5.7-13.6s8.4-5.7,13.6-5.7s9.8,1.9,13.6,5.7s5.7,8.4,5.7,13.6
	c0,3.5-0.8,6.6-2.4,9.4s-3.9,5.1-6.8,6.9H10.2z"/>
</svg>
