<?xml version="1.0" encoding="utf-8"?>
<!-- Generator: Adobe Illustrator 27.3.1, SVG Export Plug-In . SVG Version: 6.00 Build 0)  -->
<svg version="1.1" id="Layer_1" xmlns="http://www.w3.org/2000/svg" xmlns:xlink="http://www.w3.org/1999/xlink" x="0px" y="0px"
	 viewBox="0 0 60 60" style="enable-background:new 0 0 60 60;" xml:space="preserve">
<path d="M49,20.1L39.9,11c-0.7-0.7-0.7-1.8,0-2.5l4-4c0.8-0.8,1.9-1.3,3.1-1.3s2.3,0.4,3.1,1.3l5.3,5.3c0.8,0.8,1.3,1.9,1.3,3.1
	s-0.4,2.3-1.3,3.1l-4,4C50.8,20.8,49.7,20.8,49,20.1z M3,55.2v-9.2c0-0.5,0.2-0.9,0.5-1.3l12.7-12.7c0.7-0.7,0.7-1.8,0-2.5l-14-14.1
	c-0.7-0.7-0.7-1.8,0-2.5L12.8,2.3c0.7-0.7,1.8-0.7,2.5,0l14.2,14.2c0.7,0.7,1.8,0.7,2.5,0l2.2-2.2c0.7-0.7,1.8-0.7,2.5,0l9.1,9.1
	c0.7,0.7,0.7,1.8,0,2.5l-2.2,2.2c-0.7,0.7-0.7,1.8,0,2.5l14.2,14.2c0.7,0.7,0.7,1.8,0,2.5L47.2,57.7c-0.7,0.7-1.8,0.7-2.5,0
	l-14.1-14c-0.7-0.7-1.8-0.7-2.5,0L15.2,56.5C14.9,56.8,14.4,57,14,57H4.8C3.8,57,3,56.2,3,55.2z M22,26.4l4.2-4.2
	c0.7-0.7,0.7-1.8,0-2.5l-3-3c-0.7-0.7-1.8-0.7-2.5,0l-1.1,1.1c-0.7,0.7-1.8,0.7-2.5,0l-0.6-0.6c-0.7-0.7-0.7-1.8,0-2.5l1.1-1.1
	c0.7-0.7,0.7-1.8,0-2.5l-2.3-2.3c-0.7-0.7-1.8-0.7-2.5,0L8.6,13c-0.7,0.7-0.7,1.8,0,2.5l10.9,10.9C20.2,27,21.3,27,22,26.4z
	 M47,51.4l4.2-4.2c0.7-0.7,0.7-1.8,0-2.5L49,42.4c-0.7-0.7-1.8-0.7-2.5,0l-1.1,1.1c-0.7,0.7-1.8,0.7-2.5,0l-0.6-0.6
	c-0.7-0.7-0.7-1.8,0-2.5l1.1-1.1c0.7-0.7,0.7-1.8,0-2.5l-3-3c-0.7-0.7-1.8-0.7-2.5,0L33.6,38c-0.7,0.7-0.7,1.8,0,2.5l10.9,10.9
	C45.2,52.1,46.3,52.1,47,51.4z"/>
</svg>
