<?xml version="1.0" encoding="utf-8"?>
<!-- Generator: Adobe Illustrator 27.3.1, SVG Export Plug-In . SVG Version: 6.00 Build 0)  -->
<svg version="1.1" id="Layer_1" xmlns="http://www.w3.org/2000/svg" xmlns:xlink="http://www.w3.org/1999/xlink" x="0px" y="0px"
	 viewBox="0 0 60 60" style="enable-background:new 0 0 60 60;" xml:space="preserve">
<style type="text/css">
	.st0{fill:#F7F7F7;}
</style>
<path d="M35.4,23.1v-2.3c0-0.1,0-0.1,0.1-0.1c1.5-0.7,3-1.2,4.6-1.5c1.6-0.3,3.3-0.5,5.1-0.5c1.1,0,2.2,0.1,3.2,0.2
	c1,0.2,2,0.3,3,0.6c0.1,0,0.1,0.1,0.1,0.2v2.1c0,0.1-0.1,0.2-0.2,0.1c-1-0.3-1.9-0.6-2.9-0.7c-1-0.2-2.1-0.2-3.3-0.2
	c-1.8,0-3.5,0.2-5.1,0.6c-1.6,0.4-3.1,1-4.5,1.7C35.5,23.3,35.4,23.2,35.4,23.1z M35.4,38.2v-2.4c0-0.1,0-0.1,0.1-0.1
	c1.4-0.7,3-1.2,4.6-1.5c1.7-0.3,3.4-0.5,5.1-0.5c1.1,0,2.2,0.1,3.2,0.2c1,0.2,2,0.3,3,0.6c0.1,0,0.1,0.1,0.1,0.2v2.1
	c0,0.1-0.1,0.2-0.2,0.1c-1-0.3-1.9-0.6-2.9-0.7c-1-0.2-2.1-0.2-3.3-0.2c-1.8,0-3.5,0.2-5.1,0.6c-1.6,0.4-3.1,1-4.5,1.7
	C35.5,38.4,35.4,38.3,35.4,38.2z M35.4,30.7v-2.3c0-0.1,0-0.1,0.1-0.1c1.5-0.7,3-1.2,4.6-1.5c1.6-0.3,3.3-0.5,5.1-0.5
	c1.1,0,2.2,0.1,3.2,0.2c1,0.2,2,0.3,3,0.6c0.1,0,0.1,0.1,0.1,0.2v2.1c0,0.1-0.1,0.2-0.2,0.1c-1-0.3-1.9-0.6-2.9-0.7
	c-1-0.2-2.1-0.2-3.3-0.2c-1.8,0-3.5,0.2-5.1,0.7c-1.6,0.4-3.1,1-4.5,1.7C35.5,30.9,35.4,30.8,35.4,30.7z M30.1,50.4
	c-2.3-1.6-4.9-2.9-7.6-3.8c-2.7-0.9-5.5-1.3-8.3-1.3c-1.5,0-3,0.2-4.4,0.5c-1.4,0.3-2.9,0.7-4.3,1.2c-1.1,0.5-2.1,0.4-3-0.3
	C1.5,46,1,45.1,1,43.9v-29c0-0.7,0.2-1.4,0.5-2c0.4-0.6,0.9-1.1,1.6-1.4c1.7-0.8,3.5-1.3,5.4-1.7c1.9-0.4,3.8-0.5,5.7-0.5
	c2.9,0,5.6,0.4,8.3,1.2c2.7,0.8,5.2,2,7.5,3.6c0.1,0,0.1,0,0.2,0c2.3-1.6,4.7-2.8,7.4-3.6c2.7-0.8,5.4-1.2,8.2-1.2
	c1.9,0,3.8,0.2,5.7,0.5c1.9,0.4,3.7,0.9,5.4,1.7c0.7,0.3,1.2,0.8,1.6,1.4c0.4,0.6,0.6,1.3,0.6,2v29c0,1.2-0.5,2.2-1.5,2.9
	c-1,0.7-2.1,0.7-3.1,0.2c-1.4-0.5-2.8-0.9-4.2-1.2c-1.4-0.3-2.9-0.4-4.3-0.4c-2.9,0-5.6,0.4-8.2,1.3C34.9,47.6,32.4,48.8,30.1,50.4
	L30.1,50.4z"/>
<path class="st0" d="M52,21.3l-2.2-0.6c-4-1.1-8.3-0.6-12,1.3l-2.5,1.3v-2.6l2.3-1.2c3.7-1.9,7.9-2.4,11.9-1.4l2.4,0.6V21.3z"/>
<path class="st0" d="M52,28.8l-2.2-0.6c-4-1.1-8.3-0.6-12,1.3l-2.5,1.3v-2.6l2.3-1.2c3.7-1.9,7.9-2.4,11.9-1.4l2.4,0.6V28.8z"/>
<path class="st0" d="M52,36.3l-2.2-0.6c-4-1.1-8.3-0.6-12,1.3l-2.5,1.3v-2.6l2.3-1.2c3.7-1.9,7.9-2.4,11.9-1.4l2.4,0.6V36.3z"/>
</svg>
