<?xml version="1.0" encoding="utf-8"?>
<!-- Generator: Adobe Illustrator 27.3.1, SVG Export Plug-In . SVG Version: 6.00 Build 0)  -->
<svg version="1.1" id="Layer_1" xmlns="http://www.w3.org/2000/svg" xmlns:xlink="http://www.w3.org/1999/xlink" x="0px" y="0px"
	 viewBox="0 0 60 60" style="enable-background:new 0 0 60 60;" xml:space="preserve">
<style type="text/css">
	.st0{stroke:#000000;stroke-miterlimit:10;}
</style>
<g>
	<g>
		<path class="st0" d="M30.1,42.6c-2,0-3.6-0.6-4.8-1.9s-1.9-2.8-1.9-4.8c0-2,0.6-3.6,1.9-4.8c1.3-1.3,2.8-1.9,4.8-1.9
			s3.6,0.6,4.8,1.9c1.3,1.3,1.9,2.8,1.9,4.8s-0.6,3.6-1.9,4.8C33.6,41.9,32.1,42.6,30.1,42.6z M16.4,57.5c-0.6,0-1.1-0.5-1.1-1.1
			v-3.1c0-1.1,0.3-2.1,0.8-2.8c0.5-0.8,1.3-1.5,2.2-1.9c2-0.9,4-1.7,5.9-2.1c1.9-0.4,3.8-0.7,5.8-0.7c1.9,0,3.8,0.2,5.7,0.7
			c1.9,0.4,3.9,1.2,5.9,2.1c0.9,0.4,1.7,1.1,2.2,1.9s0.8,1.8,0.8,2.8v3.1c0,0.6-0.5,1.1-1.1,1.1H16.4z"/>
	</g>
	<g>
		<g>
			<path class="st0" d="M13.8,14.2c-1.7,0-3.1-0.5-4.2-1.6S8,10,8,8.3c0-1.7,0.5-3.1,1.6-4.2c1.1-1.1,2.5-1.6,4.2-1.6S16.9,3,18,4.1
				c1.1,1.1,1.6,2.5,1.6,4.2s-0.5,3.1-1.6,4.2C16.9,13.6,15.5,14.2,13.8,14.2z M2,27c-0.5,0-1-0.4-1-1v-2.7c0-0.9,0.3-1.8,0.7-2.5
				c0.5-0.7,1.1-1.3,1.9-1.6c1.7-0.8,3.5-1.5,5.1-1.8c1.6-0.4,3.3-0.6,5-0.6c1.6,0,3.3,0.2,4.9,0.6c1.6,0.4,3.4,1,5.1,1.8
				c0.8,0.4,1.5,0.9,1.9,1.6s0.7,1.6,0.7,2.5V26c0,0.5-0.4,1-1,1H2z"/>
		</g>
		<g>
			<path class="st0" d="M46.3,14.2c-1.7,0-3.1-0.5-4.2-1.6s-1.6-2.5-1.6-4.2c0-1.7,0.5-3.1,1.6-4.2c1.1-1.1,2.5-1.6,4.2-1.6
				s3.1,0.5,4.2,1.6s1.6,2.5,1.6,4.2s-0.5,3.1-1.6,4.2C49.4,13.6,48,14.2,46.3,14.2z M34.4,27c-0.5,0-1-0.4-1-1v-2.7
				c0-0.9,0.3-1.8,0.7-2.5c0.5-0.7,1.1-1.3,1.9-1.6c1.7-0.8,3.5-1.5,5.1-1.8c1.6-0.4,3.3-0.6,5-0.6c1.6,0,3.3,0.2,4.9,0.6
				c1.6,0.4,3.4,1,5.1,1.8c0.8,0.4,1.5,0.9,1.9,1.6c0.5,0.7,0.7,1.6,0.7,2.5V26c0,0.5-0.4,1-1,1H34.4z"/>
		</g>
	</g>
</g>
</svg>
